<?xml version="1.0" standalone="no"?>
<!DOCTYPE svg PUBLIC "-//W3C//DTD SVG 20010904//EN"
 "http://www.w3.org/TR/2001/REC-SVG-20010904/DTD/svg10.dtd">
<svg version="1.0" xmlns="http://www.w3.org/2000/svg"
 width="297.000000pt" height="113.000000pt" viewBox="0 0 297.000000 113.000000"
 preserveAspectRatio="xMidYMid meet">
<metadata>
Created by potrace 1.15, written by Peter Selinger 2001-2017
</metadata>
<g transform="translate(0.000000,113.000000) scale(0.100000,-0.100000)"
fill="#000000" stroke="none">
<path d="M1978 956 c-120 -32 -187 -127 -188 -268 -1 -177 110 -289 288 -291
198 -2 304 104 304 300 -1 101 -35 173 -105 220 -76 51 -196 67 -299 39z m176
-77 c45 -35 59 -76 63 -179 3 -73 -1 -107 -14 -145 -41 -113 -165 -127 -222
-24 -28 50 -38 161 -22 242 17 81 61 127 123 127 31 0 54 -7 72 -21z"/>
<path d="M504 938 c3 -13 6 -31 6 -40 0 -16 11 -18 85 -18 l85 0 0 -235 0
-235 75 0 75 0 0 213 c0 116 3 222 6 233 5 19 16 23 87 30 l82 9 3 33 3 32
-257 0 -256 0 6 -22z"/>
<path d="M1040 685 l0 -275 75 0 75 0 0 118 c0 65 3 121 6 125 10 10 56 -18
92 -55 18 -19 48 -70 67 -114 38 -87 27 -81 138 -69 67 8 66 4 16 115 -32 70
-79 126 -119 142 -25 10 -25 10 14 24 70 25 106 74 106 143 0 50 -37 96 -88
111 -20 5 -115 10 -209 10 l-173 0 0 -275z m265 201 c39 -17 52 -50 39 -98
-13 -43 -54 -71 -106 -72 l-43 -1 -3 60 c-2 33 0 75 3 93 5 29 9 32 41 32 19
0 50 -6 69 -14z"/>
<path d="M1623 953 l-23 -4 0 -275 0 -274 69 0 68 0 7 61 c3 34 6 160 6 280
l0 219 -52 -1 c-29 -1 -63 -4 -75 -6z"/>
<path d="M957 323 c260 -2 686 -2 945 0 260 1 48 2 -472 2 -520 0 -732 -1
-473 -2z"/>
</g>
</svg>
